<?xml version="1.0" encoding="UTF-8"?>
<svg id="Logos" xmlns="http://www.w3.org/2000/svg" viewBox="0 0 341.67 207.34">
  <defs>
    <style>
      .cls-1 {
        fill: #039;
      }

      .cls-1, .cls-2, .cls-3 {
        stroke-width: 0px;
      }

      .cls-2 {
        fill: #6d6e70;
      }

      .cls-3 {
        fill: #ffed00;
      }
    </style>
  </defs>
  <polygon class="cls-1" points="206.84 92.68 206.73 92.68 92.57 92.68 92.57 169.12 206.73 169.12 206.84 169.12 206.84 92.68"/>
  <g>
    <polygon class="cls-3" points="150.74 104.23 154.72 104.23 151.51 106.73 152.76 110.69 149.57 108.25 146.38 110.69 147.63 106.73 144.4 104.23 148.37 104.23 149.57 100.37 150.74 104.23 150.74 104.23"/>
    <polygon class="cls-3" points="150.88 155.21 154.86 155.21 151.66 157.62 152.9 161.43 149.71 159.08 146.52 161.43 147.78 157.62 144.54 155.21 148.51 155.21 149.71 151.5 150.88 155.21 150.88 155.21"/>
    <polygon class="cls-3" points="163.49 151.84 167.48 151.84 164.27 154.24 165.52 158.05 162.32 155.7 159.13 158.05 160.39 154.24 157.15 151.84 161.12 151.84 162.32 148.12 163.49 151.84 163.49 151.84"/>
    <polygon class="cls-3" points="163.49 107.63 167.48 107.63 164.27 110.04 165.52 113.85 162.32 111.5 159.13 113.85 160.39 110.04 157.15 107.63 161.12 107.63 162.32 103.92 163.49 107.63 163.49 107.63"/>
    <polygon class="cls-3" points="172.86 117 176.83 117 173.63 119.4 174.87 123.21 171.68 120.86 168.49 123.21 169.75 119.4 166.51 117 170.48 117 171.68 113.28 172.86 117 172.86 117"/>
    <polygon class="cls-3" points="172.86 142.6 176.83 142.6 173.63 145.01 174.87 148.82 171.68 146.47 168.49 148.82 169.75 145.01 166.51 142.6 170.48 142.6 171.68 138.89 172.86 142.6 172.86 142.6"/>
    <polygon class="cls-3" points="176.36 129.6 180.35 129.6 177.14 132.01 178.39 135.82 175.19 133.47 172 135.82 173.26 132.01 170.02 129.6 173.99 129.6 175.19 125.89 176.36 129.6 176.36 129.6"/>
    <polygon class="cls-3" points="137.89 107.67 141.86 107.67 138.66 110.07 139.9 113.88 136.71 111.53 133.52 113.88 134.78 110.07 131.55 107.67 135.51 107.67 136.71 103.95 137.89 107.67 137.89 107.67"/>
    <polygon class="cls-3" points="128.78 117.03 132.77 117.03 129.56 119.43 130.8 123.24 127.61 120.89 124.42 123.24 125.68 119.43 122.44 117.03 126.41 117.03 127.61 113.31 128.78 117.03 128.78 117.03"/>
    <polygon class="cls-3" points="125.4 129.64 129.38 129.64 126.18 132.04 127.42 135.85 124.23 133.51 121.04 135.85 122.3 132.04 119.07 129.64 123.03 129.64 124.23 125.92 125.4 129.64 125.4 129.64"/>
    <polygon class="cls-3" points="128.78 142.63 132.77 142.63 129.56 145.04 130.8 148.85 127.61 146.5 124.42 148.85 125.68 145.04 122.44 142.63 126.41 142.63 127.61 138.92 128.78 142.63 128.78 142.63"/>
    <polygon class="cls-3" points="138.02 151.87 141.99 151.87 138.79 154.27 140.03 158.08 136.84 155.73 133.65 158.08 134.91 154.27 131.68 151.87 135.64 151.87 136.84 148.15 138.02 151.87 138.02 151.87"/>
  </g>
  <g>
    <path class="cls-2" d="M224.2,38.22s23.47,37.39,27.77,44.24c4.29,6.85,9.2,12.28,26.57,15.96,17.37,3.68,24.93,5.42,24.93,5.42v1.33s-11.04-2.35-25.24-5.52c-14.2-3.17-20.01-4.24-26.48-13.25-5.39-7.5-27.55-41.04-27.55-41.04v-7.15Z"/>
    <path class="cls-2" d="M224.2,80.92s21.37,22.39,27.55,28.82c6.56,6.82,14.95,9.34,26.59,11.42,11.11,1.98,25.12,4.27,25.12,4.27v1.26s-13.16-2.16-25.12-4.2c-11.73-2.01-19.94-3.13-26.66-9.32-6.02-5.54-27.48-25.67-27.48-25.67v-6.59Z"/>
    <path class="cls-2" d="M224.2,91.01s20.32,18.87,27.55,25.32c6.65,5.93,12.04,7.78,26.66,10.37,14.62,2.59,25.05,4.2,25.05,4.2v1.33s-13.23-2.17-25.12-4.07c-11.89-1.89-19.47-2.64-26.59-8.41-8.21-6.66-27.55-22.58-27.55-22.58v-6.17Z"/>
    <path class="cls-2" d="M224.2,101.76s23.21,18.42,27.55,21.64c4.34,3.22,10.08,6.98,26.73,9.39,16.51,2.39,24.98,3.57,24.98,3.57v1.4s-14.97-2.17-24.98-3.43c-10.01-1.26-17.68-1.8-26.66-7.78-8.74-5.82-27.62-19.11-27.62-19.11v-5.68Z"/>
    <path class="cls-2" d="M224.2,112.1s23.28,15.5,27.69,17.96c4.41,2.45,9.59,6.45,26.59,8.62,17,2.17,24.98,3.15,24.98,3.15v1.33s-14.06-1.54-25.05-2.73c-10.98-1.19-18.47-2.8-26.66-7.29-8.19-4.48-27.55-15.8-27.55-15.8v-5.24Z"/>
    <path class="cls-2" d="M224.2,122.44s20.58,11.2,27.55,14.69c7.77,3.9,14.49,5.77,26.66,7.22,11.95,1.42,25.05,2.8,25.05,2.8v1.26s-12.11-1.3-25.05-2.52c-12.83-1.22-17.4-1.78-26.66-5.89-8.28-3.68-27.55-12.66-27.55-12.66v-4.91Z"/>
    <path class="cls-2" d="M224.2,132.92s16.26,6.96,27.69,11.5c11.24,4.46,19.83,4.84,26.66,5.61,3.01.34,24.91,2.59,24.91,2.59v1.26s-13.08-1.05-24.98-2.1c-11.9-1.05-17.03-1.5-26.66-4.69-9.75-3.24-27.62-9.47-27.62-9.47v-4.69Z"/>
    <path class="cls-2" d="M224.2,143.61s16.42,5.09,27.62,8.03c11.2,2.94,21.48,4.14,26.66,4.48,5.18.35,24.99,1.96,24.99,1.96v1.19s-11.27-.77-25.06-1.75c-11.15-.79-20.1-1.63-26.66-3.08-7.26-1.6-27.55-6.42-27.55-6.42v-4.41Z"/>
    <path class="cls-2" d="M224.2,154.12s13.43,2.32,27.62,4.67c10.64,1.76,25.05,2.87,26.59,2.94,1.54.07,25.05,1.68,25.05,1.68v1.26s-15.05-.78-25.05-1.33c-10.42-.58-20.78-1.21-26.66-1.82-13.18-1.37-27.55-3.19-27.55-3.19v-4.21Z"/>
    <path class="cls-2" d="M224.2,165s21.18.8,27.62.94c6.44.14,51.64,1.96,51.64,1.96v1.23h-79.26v-4.13Z"/>
    <path class="cls-2" d="M278.4,104.2c-19.17-4.13-23.51-11.14-26.73-15.48-3.22-4.35-27.48-39.8-27.48-39.8v6.52c.96,1.25,21.72,29.91,27.55,37.41,6.57,8.45,16.86,10.37,26.66,12.47,9.79,2.1,25.06,5.03,25.06,5.03v-1.12s-20.1-3.97-25.06-5.03Z"/>
    <path class="cls-2" d="M278.4,109.81c-15.74-3.08-22.11-8.06-26.73-14.08-4.62-6.03-27.48-36.86-27.48-36.86v7.58c.96,1.13,21.87,26.65,27.48,33.07,6.54,7.49,15.67,9.46,26.73,11.49,11.06,2.03,25.05,4.69,25.05,4.69v-1.12s-15.97-2.99-25.05-4.76Z"/>
    <path class="cls-2" d="M278.4,115.62c-16.37-3.18-19.73-5.79-26.66-13.38-4.36-4.77-26.61-31.04-27.55-32.15v7s20.79,22.18,27.48,28.73c8.77,8.6,17,9.25,26.73,11,9.73,1.75,25.05,4.55,25.05,4.55v-1.19s-18.5-3.28-25.05-4.55Z"/>
    <g>
      <path class="cls-2" d="M38.23,93.15s54.2-5.78,69.38-7.91c24-3.36,43.64-6.94,61.81-34.79,0,0,.02-1.58,0-2.29-11.13,16.93-26.48,28.48-47.62,31.83-20.65,3.28-83.58,8.07-83.58,8.07v5.09Z"/>
      <path class="cls-2" d="M38.22,86.24s50.23-6.29,66.78-8.61c26.18-3.66,44.59-6.95,64.41-37.33,0,0,.01-1.31,0-2.08-12.14,18.47-27.13,30.4-50.19,34.06-22.53,3.58-81,8.8-81,8.8v5.17Z"/>
    </g>
    <rect class="cls-2" x="38.25" y="165.05" width="51.25" height="4.06"/>
    <path class="cls-2" d="M169.41,82.85s.03-2.39.02-2.9c-2.41,3.67-5.58,7-9.24,9.93h3.59c2.02-2.08,3.91-4.41,5.62-7.03Z"/>
    <path class="cls-2" d="M169.41,72.05s.02-2.12.01-2.7c-5.81,8.84-14.46,15.9-24.46,20.58l5.9-.02c6.82-3.97,13.16-9.61,18.54-17.86Z"/>
    <path class="cls-2" d="M169.41,61.25s.02-1.85,0-2.49c-10.11,15.39-25.83,25.92-45.05,28.97-4.55.72-11.96,1.52-20.57,2.33l23.47-.08c15.49-3.45,29.99-10.12,42.13-28.73Z"/>
    <path class="cls-2" d="M89.51,158.21c-26.15.14-51.26.25-51.26.25v4.23s26.3-.19,51.26-.4v-4.08Z"/>
    <path class="cls-2" d="M89.51,150.95c-25.97.29-51.27.51-51.27.51v4.32s26.57-.35,51.27-.74v-4.09Z"/>
    <path class="cls-2" d="M89.5,143.67c-25.78.45-51.26.79-51.26.79v4.41s26.85-.53,51.26-1.11v-4.09Z"/>
    <path class="cls-2" d="M89.51,136.35c-25.59.63-51.27,1.1-51.27,1.1v4.49s27.16-.74,51.27-1.51v-4.09Z"/>
    <path class="cls-2" d="M89.52,129.01c-25.4.81-51.28,1.45-51.28,1.45v4.58s27.49-.96,51.28-1.94v-4.08Z"/>
    <path class="cls-2" d="M89.51,121.64c-25.2,1.02-51.27,1.82-51.27,1.82v4.66s27.83-1.22,51.27-2.43v-4.06Z"/>
    <path class="cls-2" d="M89.52,114.22c-25.01,1.24-51.29,2.23-51.29,2.23v4.75s28.2-1.51,51.29-2.96v-4.02Z"/>
    <path class="cls-2" d="M89.52,106.76c-24.82,1.48-51.29,2.69-51.29,2.69v4.83s28.58-1.84,51.29-3.54v-3.98Z"/>
    <path class="cls-2" d="M89.52,99.26c-24.65,1.74-51.29,3.2-51.29,3.2v4.92s28.96-2.22,51.29-4.18v-3.93Z"/>
    <path class="cls-2" d="M89.52,91.69c-24.5,2.03-51.3,3.76-51.3,3.76v5s29.35-2.66,51.3-4.9v-3.86Z"/>
  </g>
</svg>